<?xml version="1.0" standalone="no"?>
<!DOCTYPE svg PUBLIC "-//W3C//DTD SVG 20010904//EN"
 "http://www.w3.org/TR/2001/REC-SVG-20010904/DTD/svg10.dtd">
<svg version="1.0" xmlns="http://www.w3.org/2000/svg"
 width="1088.000000pt" height="1088.000000pt" viewBox="0 0 1088.000000 1088.000000"
 preserveAspectRatio="xMidYMid meet">
<metadata>
Created by potrace 1.11, written by Peter Selinger 2001-2013
</metadata>
<g transform="translate(0.000000,1088.000000) scale(0.100000,-0.100000)"
fill="#000000" stroke="none">
<path d="M10 8261 c0 -502 3 -640 13 -643 6 -2 970 -4 2141 -4 1882 1 2132 -1
2146 -14 9 -8 59 -67 111 -130 51 -63 96 -117 99 -120 5 -5 128 -155 160 -194
8 -11 31 -38 51 -60 19 -23 87 -104 150 -181 62 -77 128 -156 146 -175 18 -19
33 -38 33 -42 0 -4 8 -15 18 -25 10 -10 63 -72 117 -138 55 -66 102 -122 105
-125 3 -3 23 -27 44 -55 47 -59 56 -70 96 -113 16 -18 30 -35 30 -37 0 -3 11
-18 24 -33 13 -15 54 -63 91 -107 75 -90 82 -98 145 -175 25 -30 49 -60 55
-67 5 -7 15 -18 21 -25 5 -7 35 -42 65 -78 30 -36 71 -85 91 -110 l37 -46 -25
-29 c-14 -17 -47 -55 -74 -85 -63 -71 -83 -95 -131 -151 -21 -25 -49 -57 -61
-71 -21 -23 -54 -61 -168 -192 -19 -23 -39 -46 -45 -52 -5 -6 -30 -35 -55 -64
-25 -29 -49 -58 -55 -64 -5 -6 -39 -45 -74 -86 -36 -41 -74 -85 -85 -96 -12
-12 -30 -32 -40 -45 -33 -40 -199 -233 -211 -245 -6 -6 -31 -35 -56 -64 -24
-28 -53 -62 -64 -74 -11 -12 -51 -59 -89 -104 -38 -45 -73 -82 -78 -82 -4 0
-8 -6 -8 -14 0 -8 -4 -16 -9 -18 -4 -1 -27 -25 -51 -53 -51 -60 -128 -149
-155 -179 -11 -12 -38 -44 -60 -70 -22 -26 -53 -62 -68 -79 -16 -18 -48 -54
-70 -81 -23 -27 -55 -64 -72 -82 -16 -19 -35 -40 -41 -47 -6 -7 -42 -49 -80
-93 -38 -43 -80 -92 -94 -108 -14 -16 -36 -41 -49 -55 -13 -14 -37 -43 -55
-64 -17 -21 -40 -49 -51 -61 -11 -12 -42 -48 -70 -80 -27 -32 -61 -70 -75 -86
-14 -16 -47 -54 -75 -86 -27 -32 -59 -68 -70 -80 -11 -12 -36 -41 -55 -64 -19
-23 -44 -52 -55 -64 -11 -13 -42 -49 -70 -81 -27 -32 -61 -70 -74 -84 -12 -14
-39 -46 -60 -70 -20 -24 -43 -51 -51 -60 -9 -9 -45 -50 -80 -91 -36 -41 -67
-77 -70 -80 -29 -29 -120 -140 -120 -147 0 -4 493 -8 1096 -8 970 0 1097 2
1107 16 16 20 259 311 272 325 5 6 21 25 35 43 14 18 34 42 45 54 24 27 74 87
187 222 196 235 242 290 251 293 4 2 7 10 7 18 0 8 3 14 8 14 4 0 36 36 72 80
36 44 68 80 73 80 4 0 7 7 7 15 0 8 4 15 8 15 4 0 24 21 45 48 20 26 49 61 64
79 16 17 35 40 43 50 56 69 106 129 111 133 3 3 30 34 60 70 29 36 57 67 61
68 4 2 8 8 8 13 0 5 8 17 18 27 21 23 108 126 233 277 15 17 108 128 161 190
9 11 43 52 74 90 31 39 59 72 63 75 4 3 25 28 46 55 22 28 42 52 45 55 3 3 27
32 55 65 27 33 52 62 55 65 3 3 29 34 58 70 29 36 65 79 80 95 15 17 45 53 67
80 21 28 49 61 61 75 20 23 86 101 186 221 20 24 49 60 66 79 16 19 65 78 108
130 43 52 83 100 89 106 5 6 28 33 50 59 22 27 45 53 50 59 6 6 20 23 31 38
12 15 41 51 66 80 26 29 85 100 133 158 47 58 96 116 108 130 13 14 54 63 92
110 87 106 113 136 147 173 16 17 28 33 28 36 0 3 15 22 33 42 17 19 50 57 72
84 22 27 50 60 63 73 12 12 22 27 22 32 0 4 3 10 8 12 4 2 30 30 57 63 28 33
52 62 55 65 3 3 41 48 84 100 44 52 83 97 88 98 4 2 8 8 8 12 0 5 12 22 26 37
14 15 40 45 58 67 17 21 47 57 66 80 19 23 53 64 75 91 22 27 50 59 62 72 12
12 27 31 35 41 11 17 66 83 108 132 28 32 88 105 151 180 65 78 119 144 179
215 62 74 117 139 180 215 34 41 66 77 70 80 3 3 11 12 16 21 5 9 36 47 69 84
33 37 64 75 69 84 5 9 15 21 21 26 6 6 34 37 61 70 82 99 89 107 99 119 6 6
30 36 55 66 24 30 51 62 60 71 8 8 31 35 50 59 19 24 40 48 45 54 6 6 40 47
75 90 36 44 77 93 93 110 15 17 27 34 27 38 0 5 -445 8 -989 8 l-989 0 -38
-44 c-50 -57 -128 -145 -151 -172 -23 -27 -112 -129 -138 -158 -11 -12 -42
-49 -70 -82 -27 -32 -61 -71 -75 -86 -14 -15 -43 -49 -65 -75 -22 -26 -47 -54
-55 -63 -8 -9 -42 -47 -75 -85 -33 -39 -62 -72 -65 -75 -3 -3 -48 -54 -99
-115 -52 -60 -99 -114 -105 -120 -6 -5 -38 -41 -71 -80 -33 -38 -70 -81 -82
-95 -12 -14 -32 -36 -43 -50 -45 -53 -116 -135 -137 -157 -13 -13 -23 -26 -23
-28 0 -2 -10 -15 -22 -27 -13 -13 -43 -47 -68 -77 -25 -29 -64 -73 -86 -97
-23 -24 -40 -44 -39 -44 3 0 -37 -46 -90 -105 -16 -18 -46 -52 -65 -75 -19
-23 -48 -56 -65 -74 -16 -18 -50 -57 -75 -87 -25 -30 -59 -68 -77 -86 l-32
-33 -40 52 c-21 29 -47 62 -57 73 -11 11 -46 54 -79 95 -32 41 -64 80 -70 86
-5 6 -23 28 -39 49 -17 20 -95 117 -174 214 -80 97 -159 193 -176 215 -17 21
-35 44 -41 50 -5 6 -48 58 -95 116 -114 141 -114 141 -125 154 -6 6 -24 29
-40 51 -16 22 -37 47 -45 55 -8 8 -52 61 -97 117 -46 56 -89 110 -97 120 -8
10 -39 47 -68 83 -29 36 -55 67 -58 70 -3 3 -21 25 -40 50 -19 25 -40 51 -48
58 -7 8 -25 30 -40 50 -15 21 -29 39 -32 42 -4 3 -30 34 -58 70 -29 36 -60 74
-70 85 -10 11 -38 45 -63 75 -24 30 -46 57 -49 60 -3 3 -21 26 -40 52 l-35 47
-2597 1 -2598 0 0 -639z"/>
<path d="M0 4020 l0 -2050 802 2 803 3 0 1405 -1 1405 1304 0 c766 0 1306 3
1309 9 4 6 8 1166 4 1259 -1 16 -108 17 -2111 17 l-2110 0 0 -2050z"/>
<path d="M9114 3993 c-27 -32 -51 -60 -54 -63 -5 -5 -147 -175 -165 -197 -5
-7 -21 -26 -35 -41 -14 -16 -34 -40 -45 -53 -37 -46 -237 -284 -273 -327 -48
-56 -44 -51 -141 -167 -46 -55 -88 -101 -92 -103 -5 -2 -9 -8 -9 -14 0 -6 -8
-18 -18 -27 -10 -9 -31 -33 -46 -53 -23 -32 -26 -40 -14 -51 7 -8 36 -40 63
-72 28 -31 61 -70 75 -85 14 -15 41 -46 60 -70 19 -24 46 -55 60 -70 14 -15
43 -49 65 -75 22 -26 47 -55 55 -64 8 -9 38 -43 65 -76 28 -33 57 -66 66 -75
9 -8 44 -49 79 -90 34 -41 67 -79 74 -85 6 -5 40 -45 76 -87 l64 -78 923 0
c508 0 923 2 923 5 0 3 -21 32 -48 63 -26 31 -55 66 -64 77 -9 11 -74 90 -144
175 -70 85 -130 157 -133 160 -4 3 -18 21 -33 42 -15 20 -33 42 -41 50 -7 7
-46 54 -86 103 -69 85 -98 120 -181 220 -19 23 -42 51 -50 61 -18 23 -164 199
-194 234 -11 14 -61 75 -111 135 -49 61 -94 115 -100 121 -5 6 -23 28 -40 49
-16 22 -40 50 -52 63 -13 12 -23 27 -23 32 0 4 -3 10 -7 12 -5 2 -39 41 -78
88 -38 47 -72 87 -75 90 -3 3 -23 28 -44 55 -22 28 -44 55 -50 60 -6 6 -29 33
-51 60 -45 57 -63 78 -86 106 -16 19 -18 18 -65 -38z"/>
</g>
</svg>
